<?xml version="1.0" encoding="UTF-8"?><svg id="Layer_2" xmlns="http://www.w3.org/2000/svg" viewBox="0 0 10508 10508"><g id="Layer_1-2"><polygon points="10508 5671.54 6812.25 5671.54 10012.8 7519.41 9595.27 8242.59 6394.71 6394.71 8242.59 9595.27 7519.41 10012.8 5671.54 6812.25 5671.54 10508 4836.46 10508 4836.46 6812.25 2988.59 10012.8 2265.41 9595.27 4113.29 6394.71 912.73 8242.59 495.2 7519.41 3695.75 5671.54 0 5671.54 0 4836.46 3695.75 4836.46 495.2 2988.59 912.73 2265.41 4113.29 4113.29 2265.41 912.73 2988.59 495.2 4836.46 3695.75 4836.46 0 5671.54 0 5671.54 3695.75 7519.41 495.2 8242.59 912.73 6394.71 4113.29 9595.27 2265.41 10012.8 2988.59 6812.25 4836.46 10508 4836.46 10508 5671.54" fill="#fff"/></g></svg>